<svg xmlns="http://www.w3.org/2000/svg" xml:space="preserve" width="1500" height="1500" data-id="lg_WKMYxBZOAuCFrAwZeq" data-version="1" viewBox="0 0 1500 1500"><path fill="#fff" stroke="transparent" d="M0 0h1500v1500H0z"/><g data-padding="20"><g transform="translate(-576.165 -580.244)scale(1.72788)"><rect width="422.351" height="422.351" x="148.422" y="151.442" fill="none" stroke="#000" stroke-width="4" rx="0" ry="0" transform="translate(337.28 400)scale(1.02)" vector-effect="non-scaling-stroke"/><rect width="61.225" height="192.399" x="328.986" y="266.419" fill="#fff" rx="0" ry="0" transform="translate(558.701 400.01)scale(1.02)" vector-effect="non-scaling-stroke"/><rect width="254.52" height="197.445" x="243.235" y="274.884" fill="none" rx="0" ry="0" transform="matrix(.99 0 0 .99 553.57 399.89)"/><path d="M911.876 737.932h-15.999q.396 1.594.396 4 0 2.297-.396 4 .396 1.593.396 4 0 2.296-.396 4h16q.395 1.593.395 4 0 2.295-.396 3.998h-23.998q-.406-1.703-.406-4 0-2.405.406-4-.406-1.702-.406-3.999 0-2.406.406-4-.406-1.702-.406-4 0-2.405.406-3.999-.406-1.703-.406-4 0-2.405.406-3.999-.406-1.703-.406-4 0-2.405.406-4-.406-1.702-.406-3.999 0-2.405.406-4-.406-1.702-.406-3.999 0-2.406.406-4h23.998q.396 1.594.396 4 0 2.297-.396 4h-15.999q.396 1.594.396 4 0 2.296-.396 4 .396 1.593.396 4 0 2.295-.396 4h16q.395 1.592.395 3.998 0 2.297-.396 4m43.985-23.998q.396 1.594.396 4 0 2.296-.396 4 .396 1.593.396 4 0 2.295-.396 4 .396 1.592.396 3.998 0 2.296-.396 4 .396 1.593.396 4 0 2.296-.396 4 .396 1.592.396 4 0 2.295-.396 3.998.396 1.594.396 4 0 2.296-.396 4h-7.999q-.406-1.704-.406-4 0-2.406.406-4-.406-1.703-.406-4 0-2.406.406-4-.406-1.702-.406-4 0-2.405.406-3.999-.406-1.703-.406-4 0-2.405.406-3.999-.406-1.703-.406-4 0-2.405.406-4h-3q.397 1.595.397 4 0 2.297-.396 4 .396 1.594.396 4 0 2.296-.396 4h-2q.396 1.593.396 4 0 2.296-.396 4 .396 1.592.396 4 0 2.295-.396 3.998h-6q-.406-1.703-.406-4 0-2.406.406-4-.406-1.702-.406-4 0-2.405.406-3.999h-2q-.405-1.703-.405-4 0-2.405.405-3.999-.405-1.703-.405-4 0-2.405.405-4h-3q.397 1.595.397 4 0 2.297-.396 4 .396 1.594.396 4 0 2.296-.396 4 .396 1.593.396 4 0 2.296-.396 4 .396 1.592.396 4 0 2.295-.396 3.998.396 1.594.396 4 0 2.296-.396 4h-8q-.405-1.704-.405-4 0-2.406.406-4-.406-1.703-.406-4 0-2.406.406-4-.406-1.702-.406-4 0-2.405.406-3.999-.406-1.703-.406-4 0-2.405.406-3.999-.406-1.703-.406-4 0-2.405.406-4-.406-1.702-.406-3.999 0-2.405.406-4-.406-1.702-.406-3.999 0-2.406.406-4h10q.395 1.594.395 4 0 2.297-.396 4h3q.395 1.594.395 4 0 2.296-.396 4h1.495q.396 1.593.396 4 0 2.295-.396 4h3q-.396-1.705-.396-4 0-2.407.396-4h1.505q-.406-1.704-.406-4 0-2.406.406-4h3q-.406-1.703-.406-4 0-2.406.405-4h10q.395 1.594.395 4 0 2.297-.396 4M835.883 820.41q.396 1.603.396 4 0 2.296-.396 4 .396 1.602.396 3.998 0 2.297-.396 4h-4q.397 1.603.397 4 0 2.296-.396 4h-23.998q-.406-1.704-.406-4 0-2.397.406-4h-4q-.405-1.703-.405-4 0-2.396.406-4h8q.395 1.604.395 4 0 2.297-.396 4h15.998q-.406-1.703-.406-4 0-2.396.406-4-.406-1.702-.406-4 0-2.395.406-3.999h-19.998q-.406-1.703-.406-4 0-2.395.406-3.999h-4q-.405-1.703-.405-4 0-2.395.406-4-.406-1.702-.406-3.999 0-2.396.406-4h4q-.407-1.702-.407-3.999 0-2.396.406-4h23.998q.396 1.604.396 4 0 2.297-.396 4h4q.395 1.603.395 4 0 2.296-.396 4h-7.999q-.406-1.704-.406-4 0-2.397.406-4h-15.998q.396 1.603.396 4 0 2.296-.396 4 .396 1.603.396 4 0 2.295-.396 3.998h19.998q.396 1.604.396 4 0 2.296-.396 4Zm40.382-12q0 2.297-.396 4h-3q.397 1.604.397 4 0 2.296-.396 4h-3q.396 1.603.396 4 0 2.296-.396 4h-2q.396 1.602.396 3.998 0 2.297-.396 4h-3q.396 1.603.396 4 0 2.296-.396 4h-2q.397 1.603.397 4 0 2.295-.396 3.998h-4q.396 1.604.396 4 0 2.296-.396 4h-11.999q-.406-1.704-.406-4 0-2.396.406-4h8q-.406-1.703-.406-4 0-2.395.405-4-.405-1.702-.405-3.999 0-2.396.405-4h-4q-.405-1.702-.405-3.999 0-2.396.406-4h-2q-.406-1.702-.406-4 0-2.395.406-3.999h-3q-.406-1.703-.406-4 0-2.395.406-3.999h-3q-.405-1.703-.405-4 0-2.395.406-4h8q.395 1.605.395 4 0 2.297-.396 4h3q.396 1.604.396 4 0 2.296-.396 4h3q.395 1.603.395 4 0 2.296-.396 4 .396 1.602.396 3.998 0 2.297-.396 4h3q-.406-1.703-.406-4 0-2.396.406-4h2q-.406-1.702-.406-4 0-2.395.406-3.999h3q-.406-1.703-.406-4 0-2.395.405-3.999h3q-.406-1.703-.406-4 0-2.395.406-4h8q.395 1.605.395 4m38.007 23.998q0 2.297-.396 4h-4q.396 1.603.396 4 0 2.296-.396 4h-21.998q-.406-1.704-.406-4 0-2.397.406-4h17.998q-.405-1.703-.405-4 0-2.396.405-4h-15.998q-.406-1.702-.406-4 0-2.395.406-3.999h-4q-.405-1.703-.405-4 0-2.395.405-3.999h4q-.406-1.703-.406-4 0-2.395.406-4h21.998q.396 1.605.396 4 0 2.297-.396 4h-17.998q.396 1.604.396 4 0 2.296-.396 4h15.998q.396 1.603.396 4 0 2.296-.396 4h4q.396 1.602.396 3.998m25.591 4h12q.395 1.603.395 4 0 2.296-.396 4h-15.999q-.405-1.704-.405-4 0-2.397.405-4h-4q-.405-1.703-.405-4 0-2.396.406-4-.406-1.702-.406-4 0-2.395.406-3.999-.406-1.703-.406-4 0-2.395.406-3.999h-8q-.405-1.703-.405-4 0-2.395.406-4h8q-.407-1.702-.407-3.999 0-2.396.406-4-.406-1.702-.406-3.999 0-2.396.406-4h8q.395 1.604.395 4 0 2.297-.396 4 .396 1.603.396 4 0 2.296-.396 4h12q.395 1.603.395 4 0 2.295-.396 3.998h-11.999q.396 1.604.396 4 0 2.296-.396 4 .396 1.603.396 4 0 2.296-.396 4 .396 1.602.396 3.998 0 2.297-.396 4m56.4-19.998q0 2.296-.396 4 .396 1.603.396 4 0 2.296-.396 4H974.87q.396 1.602.396 3.998 0 2.297-.396 4h16.998q.396 1.603.396 4 0 2.296-.396 4H971.87q-.406-1.704-.406-4 0-2.397.406-4h-5q-.406-1.703-.406-4 0-2.396.406-4h-3q-.405-1.702-.405-4 0-2.395.406-3.999h3q-.407-1.703-.407-4 0-2.395.406-3.999h5q-.406-1.703-.406-4 0-2.395.406-4h19.998q.396 1.605.396 4 0 2.297-.396 4h4q.395 1.604.395 4m-8.395 4q-.406-1.704-.406-4 0-2.396.406-4H974.87q.396 1.604.396 4 0 2.296-.396 4Zm21.394-12q0 2.297-.396 4h3q.396 1.604.396 4 0 2.296-.396 4 .396 1.603.396 4 0 2.296-.396 4 .396 1.602.396 3.998 0 2.297-.396 4 .396 1.603.396 4 0 2.296-.396 4h-8q-.405-1.704-.405-4 0-2.397.406-4-.406-1.703-.406-4 0-2.396.406-4-.406-1.702-.406-4 0-2.395.406-3.999-.406-1.703-.406-4 0-2.395.406-3.999-.406-1.703-.406-4 0-2.395.406-4h5q.395 1.605.395 4m11 0q0 2.297-.397 4h3q.396 1.604.396 4 0 2.296-.396 4 .396 1.603.396 4 0 2.296-.396 4 .396 1.602.396 3.998 0 2.297-.396 4 .396 1.603.396 4 0 2.296-.396 4h-6q-.406-1.704-.406-4 0-2.397.406-4-.406-1.703-.406-4 0-2.396.406-4-.406-1.702-.406-4 0-2.395.406-3.999-.406-1.703-.406-4 0-2.395.406-3.999h-5q-.405-1.703-.405-4 0-2.395.406-4h8q.395 1.605.395 4m15.602 12q.396 1.603.396 4 0 2.296-.396 4 .396 1.602.396 3.998 0 2.297-.396 4 .396 1.603.396 4 0 2.296-.396 4h-7.999q-.406-1.704-.406-4 0-2.397.406-4-.406-1.703-.406-4 0-2.396.406-4-.406-1.702-.406-4 0-2.395.406-3.999-.406-1.703-.406-4 0-2.395.406-3.999h-5q-.405-1.703-.405-4 0-2.395.406-4h9q.395 1.605.395 4 0 2.297-.396 4h4q.395 1.604.395 4 0 2.296-.396 4"/></g><path fill="transparent" stroke="transparent" stroke-width="1.792" d="M250 363.8h1000v772.4H250z"/></g></svg>